<?xml version="1.0" encoding="utf-8"?>
<!-- Generator: Adobe Illustrator 24.0.0, SVG Export Plug-In . SVG Version: 6.00 Build 0)  -->
<svg version="1.1" id="Layer_1" xmlns="http://www.w3.org/2000/svg" xmlns:xlink="http://www.w3.org/1999/xlink" x="0px" y="0px"
	 viewBox="0 0 74 57" style="enable-background:new 0 0 74 57;" xml:space="preserve">
<style type="text/css">
	.st0{fill:#292929;}
	.st1{fill:#4D4D4D;}
	.st2{fill:none;stroke:#FFFFFF;stroke-width:5;stroke-miterlimit:10;}
	.st3{fill:#FFFFFF;}
	.st4{fill:#CCCCCC;}
	.st5{fill:none;stroke:#000000;stroke-miterlimit:10;}
	.st6{fill:none;stroke:#FFFFFF;stroke-width:4;stroke-miterlimit:10;}
	.st7{opacity:0.22;}
	.st8{fill:none;stroke:#4D4D4D;stroke-width:2;stroke-miterlimit:10;}
	.st9{fill:#FFFFFF;stroke:#FFFFFF;stroke-width:4;stroke-miterlimit:10;}
</style>
<g>
	<g>
		<g>
			<polygon class="st3" points="62.1,21.6 12,21.6 37.1,6 			"/>
			<path class="st3" d="M62.4,22.8v23.7h-0.3c0,2.5-2,4.5-4.5,4.5H16.1c-2.5,0-4.5-2-4.5-4.5V22.8c0-0.3,0-0.5,0.1-0.8l24,14.8
				c0,0,0.1,0,0.1,0c0,0,0.1,0,0.1,0c0.2,0.1,0.3,0.2,0.5,0.2c0,0,0,0,0.1,0c0.2,0,0.4,0.1,0.6,0.1h0c0.2,0,0.4,0,0.6-0.1
				c0,0,0,0,0.1,0c0.2,0,0.4-0.1,0.5-0.2c0,0,0.1,0,0.1,0c0,0,0.1,0,0.1,0l24-14.8C62.4,22.3,62.4,22.5,62.4,22.8z"/>
		</g>
	</g>
</g>
</svg>
