<?xml version="1.0" encoding="utf-8"?>
<!-- Generator: Adobe Illustrator 24.0.0, SVG Export Plug-In . SVG Version: 6.00 Build 0)  -->
<svg version="1.1" id="Layer_1" xmlns="http://www.w3.org/2000/svg" xmlns:xlink="http://www.w3.org/1999/xlink" x="0px" y="0px"
	 viewBox="0 0 39 43" style="enable-background:new 0 0 39 43;" xml:space="preserve">
<style type="text/css">
	.st0{fill:#292929;}
	.st1{fill:#4D4D4D;}
	.st2{fill:none;stroke:#FFFFFF;stroke-width:5;stroke-miterlimit:10;}
	.st3{fill:#FFFFFF;}
	.st4{fill:#CCCCCC;}
	.st5{fill:none;stroke:#000000;stroke-miterlimit:10;}
	.st6{fill:none;stroke:#FFFFFF;stroke-width:4;stroke-miterlimit:10;}
	.st7{opacity:0.22;}
	.st8{fill:none;stroke:#4D4D4D;stroke-width:2;stroke-miterlimit:10;}
	.st9{fill:#FFFFFF;stroke:#FFFFFF;stroke-width:4;stroke-miterlimit:10;}
</style>
<g>
	<path class="st3" d="M19.5,21.1c4.1,0,7.4-4,7.4-9c0-5-1.1-9-7.4-9s-7.4,4-7.4,9C12.1,17.1,15.4,21.1,19.5,21.1z"/>
	<path class="st3" d="M33.5,34.5c-0.1-8.7-1.3-11.1-9.9-12.7c0,0-1.2,1.6-4.1,1.6s-4.1-1.6-4.1-1.6c-8.6,1.5-9.8,4-9.9,12.4
		c0,0.7,0,0.7,0,0.6c0,0.1,0,0.4,0,0.9c0,0,2.1,4.2,14,4.2c11.9,0,14-4.2,14-4.2c0-0.3,0-0.5,0-0.7C33.5,35.1,33.5,35,33.5,34.5z"/>
</g>
</svg>
