<?xml version="1.0" encoding="utf-8"?>
<!-- Generator: Adobe Illustrator 24.0.0, SVG Export Plug-In . SVG Version: 6.00 Build 0)  -->
<svg version="1.1" id="Layer_1" xmlns="http://www.w3.org/2000/svg" xmlns:xlink="http://www.w3.org/1999/xlink" x="0px" y="0px"
	 viewBox="0 0 45 42" style="enable-background:new 0 0 45 42;" xml:space="preserve">
<style type="text/css">
	.st0{fill:#292929;}
	.st1{fill:#4D4D4D;}
	.st2{fill:none;stroke:#FFFFFF;stroke-width:5;stroke-miterlimit:10;}
	.st3{fill:#FFFFFF;}
	.st4{fill:#CCCCCC;}
	.st5{fill:none;stroke:#000000;stroke-miterlimit:10;}
	.st6{fill:none;stroke:#FFFFFF;stroke-width:4;stroke-miterlimit:10;}
	.st7{opacity:0.22;}
	.st8{fill:none;stroke:#4D4D4D;stroke-width:2;stroke-miterlimit:10;}
	.st9{fill:#FFFFFF;stroke:#FFFFFF;stroke-width:4;stroke-miterlimit:10;}
</style>
<g>
	<g>
		<g>
			<g>
				<path class="st3" d="M39.2,19.1c-0.1-0.2-0.2-0.3-0.3-0.5l-4.2-4.2c-0.8-0.8-2.2-0.5-2.4,0.9c-0.1,0.3,0.1,0.7,0.3,0.9l1.9,1.9
					l-8,0c-0.3,0-0.7,0.2-0.9,0.4c-0.8,1.1,0,2.4,1.1,2.4h7.8l-1.9,1.9c-0.2,0.2-0.4,0.6-0.3,0.9c0.1,0.9,0.8,1.4,1.4,1.4
					c0.4,0,0.7-0.1,1-0.4l4.2-4.2c0.1-0.1,0.2-0.3,0.3-0.5C39.4,19.8,39.4,19.4,39.2,19.1z"/>
				<path class="st3" d="M30,23.9c-1-0.3-1.9,0.4-1.9,1.3v7h-5.6V9.8c0-0.6-0.4-1.2-1-1.3L16.6,7h11.5l0,7c0,0.6,0.4,1.2,0.9,1.4
					c1,0.3,1.9-0.4,1.9-1.3V5.6c0-0.8-0.6-1.4-1.4-1.4H7.1c-0.1,0-0.1,0-0.1,0c-0.1,0-0.1,0-0.2,0c-0.1,0-0.3,0.1-0.4,0.2
					c0,0-0.1,0-0.1,0c0,0,0,0,0,0C6,4.6,5.9,4.7,5.8,4.9c0,0,0,0.1,0,0.1c0,0.1-0.1,0.2-0.1,0.3c0,0,0,0.1,0,0.1c0,0,0,0.1,0,0.1
					v28.1c0,0.7,0.5,1.2,1.1,1.4l14,2.8c0.1,0,0.2,0,0.3,0c0.3,0,0.6-0.1,0.9-0.3c0.3-0.3,0.5-0.7,0.5-1.1V35h7
					c0.8,0,1.4-0.6,1.4-1.4l0-8.4C30.9,24.7,30.6,24.1,30,23.9z"/>
			</g>
		</g>
	</g>
</g>
</svg>
