<!-- <?xml version="1.0" encoding="utf-8"?> -->
<!-- Generator: Adobe Illustrator 24.0.0, SVG Export Plug-In . SVG Version: 6.00 Build 0)  -->
<svg version="1.1"  id="Layer_1" xmlns="http://www.w3.org/2000/svg" xmlns:xlink="http://www.w3.org/1999/xlink" x="0px" y="0px"
	 viewBox="0 0 118 90" style="enable-background:new 0 0 118 90;" xml:space="preserve">
<style type="text/css">
	.st0{fill:#292929;}
	.st1{fill:#4D4D4D;}
	.st2{fill:none;stroke:#FFFFFF;stroke-width:5;stroke-miterlimit:10;}
	.st3{fill:#FFFFFF;}
	.st4{fill:#CCCCCC;}
	.st5{fill:none;stroke:#000000;stroke-miterlimit:10;}
	.st6{fill:none;stroke:#FFFFFF;stroke-width:4;stroke-miterlimit:10;}
	.st7{opacity:0.22;}
	.st8{fill:none;stroke:#4D4D4D;stroke-width:2;stroke-miterlimit:10;}
	.st9{fill:#FFFFFF;stroke:#FFFFFF;stroke-width:4;stroke-miterlimit:10;}
</style>
<g>
	<g>
		<g>
			<path class="st3" d="M52,54.5c-4.3,5.1-8.5,10.4-13,15.3c-4.3,4.7-8,6.1-15.9,0.9c0.4,5,0.7,9.2,1,13.6c-3.9,1.7-8-1.1-8.1-6.4
				C15.9,72.1,15.8,66,17,60.4c2.5-11.7,5.9-23.2,8.9-34.8c0.8-3.1,1.4-6.3,2.2-9.9c4.1,1.2,7.6,2.6,8.2,7.4
				c0.4-1.8,0.8-3.6,1.2-5.3c1.1-4.7-1.5-7.1-6.2-6.3C23.8,12.8,18,17,13,22.3c-2.1,2.2-4.1,2.1-6.1,0.7C4.6,21.4,4,19.1,6,16.8
				c5.3-6.1,12-9.8,20-11.4c4.5-0.9,8.6,0,12.4,2c6.3,3.4,8.5,8.3,6.2,15.6c-3.8,11.9-8.2,23.5-12.4,35.3c-0.9,2.5-1.8,5.1-2.1,8.5
				c3.3-2.5,6.9-4.7,9.8-7.5c4.5-4.4,9-8.9,12.6-14c2.9-4.2,4.3-9.4,6.6-14.1c1.3-2.7,2.8-5.4,4.5-7.7c0.7-0.9,2.8-1.6,3.7-1.1
				c1.8,0.9,4.4,2.1,3,5c-1.4,2.8-3.2,5.3-4.6,8.1c-4.3,8.5-6.9,17.3-4.4,27.1c8.4-2.2,14.5-7.9,21-12.9
				c8.8-6.7,17.6-13.5,26.4-20.1c1.1-0.8,2.7-0.8,4.6-1.3c-1.6,5.9-6,8.6-9.6,11.7C94.3,48,85,56.1,75.6,64c-2.1,1.7-4.6,3.1-7,4.1
				C61.3,71.2,55,68,53,60.4C52.5,58.4,52.3,56.4,52,54.5z"/>
		</g>
	</g>
</g>
</svg>
